<?xml version="1.0" standalone="no"?>
<!DOCTYPE svg PUBLIC "-//W3C//DTD SVG 20010904//EN"
 "http://www.w3.org/TR/2001/REC-SVG-20010904/DTD/svg10.dtd">
<svg version="1.0" xmlns="http://www.w3.org/2000/svg"
 width="431.000000pt" height="431.000000pt" viewBox="0 0 431.000000 431.000000"
 preserveAspectRatio="xMidYMid meet">
<metadata>
Created by potrace 1.11, written by Peter Selinger 2001-2013
</metadata>
<g transform="translate(0.000000,431.000000) scale(0.100000,-0.100000)"
fill="#000000" stroke="none">
<path d="M3257 2774 c-173 -42 -303 -161 -342 -313 -19 -74 -14 -122 23 -201
43 -92 106 -144 316 -260 203 -113 256 -157 277 -232 27 -103 -62 -243 -183
-286 -58 -20 -61 -32 -10 -32 141 1 302 100 369 227 64 121 65 209 3 337 -49
103 -111 155 -300 251 -170 86 -217 122 -252 190 -60 116 14 276 140 301 17 4
32 13 32 20 0 16 2 16 -73 -2z"/>
<path d="M3410 2776 c0 -7 12 -16 28 -19 39 -9 143 -73 198 -123 26 -24 49
-44 51 -44 2 0 3 37 1 82 l-3 83 -80 16 c-103 22 -195 24 -195 5z"/>
<path d="M2180 2761 c0 -14 8 -22 28 -26 70 -15 107 -32 148 -68 108 -95 151
-249 152 -552 1 -270 -39 -437 -129 -539 -35 -41 -124 -86 -168 -86 -27 0 -31
-4 -31 -25 0 -29 -10 -28 122 -6 116 20 284 119 361 213 75 91 133 211 152
313 9 49 7 206 -4 260 -56 281 -286 490 -583 530 -44 6 -48 4 -48 -14z"/>
<path d="M558 2738 c11 -18 102 -170 203 -338 l184 -305 5 -320 5 -320 133 -3
132 -3 0 325 0 324 -151 243 c-84 134 -177 285 -208 336 l-56 92 -133 1 -134
0 20 -32z"/>
<path d="M1485 2713 c-9 -32 -24 -83 -35 -113 -34 -103 -61 -193 -58 -196 3
-2 237 256 301 332 l28 34 -110 0 -110 0 -16 -57z"/>
<path d="M2015 2763 c-68 -15 -152 -50 -207 -85 -328 -209 -416 -628 -198
-948 95 -140 252 -242 423 -275 l67 -13 0 24 c0 13 -6 24 -13 24 -8 0 -42 14
-75 31 -102 51 -165 146 -204 311 -18 78 -22 122 -22 278 0 160 3 198 23 280
37 148 92 242 176 298 26 17 63 34 81 38 24 4 34 12 34 25 0 15 -7 19 -32 18
-18 -1 -42 -3 -53 -6z"/>
<path d="M2912 1576 l3 -90 35 -8 c27 -6 251 -38 267 -38 2 0 3 8 3 18 0 12
-15 23 -47 34 -67 24 -167 85 -220 134 l-44 41 3 -91z"/>
<path d="M2071 1366 c2 -2 83 -37 179 -76 274 -113 433 -180 453 -191 20 -11
19 -14 45 93 l20 76 -22 6 c-11 3 -73 12 -136 20 -63 9 -207 29 -320 46 -215
31 -226 32 -219 26z"/>
</g>
</svg>
